<svg id="fmd_good_black_24dp" xmlns="http://www.w3.org/2000/svg" width="24" height="24" viewBox="0 0 24 24">
  <g id="Group_40" data-name="Group 40">
    <path id="Path_58" data-name="Path 58" d="M0,0H24V24H0Z" fill="none"/>
  </g>
  <g id="Group_41" data-name="Group 41">
    <path id="Path_59" data-name="Path 59" d="M12,12a2,2,0,1,1,2-2A2.006,2.006,0,0,1,12,12Zm6-1.8a6,6,0,1,0-12,0c0,2.34,1.95,5.44,6,9.14C16.05,15.64,18,12.54,18,10.2ZM12,2a7.955,7.955,0,0,1,8,8.2q0,4.98-8,11.8Q4.005,15.175,4,10.2A7.955,7.955,0,0,1,12,2Z" fill="#fff"/>
  </g>
</svg>
