<svg xmlns="http://www.w3.org/2000/svg" width="16.78" height="16.783" viewBox="0 0 16.78 16.783">
  <g id="instagram_1_" data-name="instagram (1)" transform="translate(-0.449)" opacity="0.794">
    <path id="Path_40974" data-name="Path 40974" d="M17.187,4.934A6.133,6.133,0,0,0,16.8,2.9,4.3,4.3,0,0,0,14.341.443,6.148,6.148,0,0,0,12.3.053C11.406.01,11.121,0,8.842,0S6.279.01,5.384.049a6.134,6.134,0,0,0-2.036.39,4.1,4.1,0,0,0-1.489.971A4.132,4.132,0,0,0,.892,2.9,6.149,6.149,0,0,0,.5,4.931c-.043.9-.053,1.184-.053,3.462s.01,2.564.049,3.459a6.132,6.132,0,0,0,.39,2.036,4.3,4.3,0,0,0,2.456,2.456,6.149,6.149,0,0,0,2.036.39c.895.039,1.18.049,3.459.049s2.564-.01,3.459-.049a6.131,6.131,0,0,0,2.036-.39,4.293,4.293,0,0,0,2.456-2.456,6.153,6.153,0,0,0,.39-2.036c.039-.9.049-1.18.049-3.459S17.226,5.829,17.187,4.934Zm-1.511,6.852a4.6,4.6,0,0,1-.289,1.557,2.784,2.784,0,0,1-1.593,1.593,4.616,4.616,0,0,1-1.557.288c-.885.039-1.151.049-3.39.049s-2.508-.01-3.39-.049A4.6,4.6,0,0,1,3.9,14.937a2.583,2.583,0,0,1-.964-.626,2.609,2.609,0,0,1-.626-.964A4.617,4.617,0,0,1,2.02,11.79c-.039-.885-.049-1.151-.049-3.39s.01-2.508.049-3.39a4.6,4.6,0,0,1,.288-1.557,2.551,2.551,0,0,1,.63-.964A2.605,2.605,0,0,1,3.9,1.862a4.62,4.62,0,0,1,1.557-.289c.885-.039,1.151-.049,3.39-.049s2.508.01,3.39.049a4.6,4.6,0,0,1,1.557.289,2.581,2.581,0,0,1,.964.626,2.609,2.609,0,0,1,.626.964,4.619,4.619,0,0,1,.289,1.557c.039.885.049,1.151.049,3.39S15.715,10.9,15.675,11.787Zm0,0" fill="#fff"/>
    <path id="Path_40975" data-name="Path 40975" d="M129.261,124.5a4.311,4.311,0,1,0,4.311,4.311A4.312,4.312,0,0,0,129.261,124.5Zm0,7.108a2.8,2.8,0,1,1,2.8-2.8A2.8,2.8,0,0,1,129.261,131.608Zm0,0" transform="translate(-120.418 -120.418)" fill="#fff"/>
    <path id="Path_40976" data-name="Path 40976" d="M364.462,89.608a1.007,1.007,0,1,1-1.007-1.007A1.007,1.007,0,0,1,364.462,89.608Zm0,0" transform="translate(-350.131 -85.697)" fill="#fff"/>
  </g>
</svg>
