<svg xmlns="http://www.w3.org/2000/svg" width="16.776" height="16.776" viewBox="0 0 16.776 16.776">
  <g id="linkedin" opacity="0.794">
    <path id="Path_6" data-name="Path 6" d="M19.391,19.123h0V12.934c0-3.028-.652-5.36-4.191-5.36a3.674,3.674,0,0,0-3.309,1.819h-.049V7.857H8.489V19.122h3.494V13.544c0-1.469.278-2.889,2.1-2.889,1.792,0,1.819,1.676,1.819,2.983v5.485Z" transform="translate(-2.618 -2.347)" fill="#fff"/>
    <path id="Path_7" data-name="Path 7" d="M.4,7.977h3.5V19.243H.4Z" transform="translate(-0.118 -2.466)" fill="#fff"/>
    <path id="Path_8" data-name="Path 8" d="M2.026,0A2.036,2.036,0,1,0,4.053,2.026,2.027,2.027,0,0,0,2.026,0Z" fill="#fff"/>
  </g>
</svg>
