<svg width="16" height="17" viewBox="0 0 16 17" fill="none" xmlns="http://www.w3.org/2000/svg">
<g id="fmd_good_black_24dp (4)">
<g id="Group 838">
<path id="Path 3657" d="M7.99994 1.83288C7.28689 1.82809 6.58019 1.96723 5.92218 2.24199C5.26416 2.51674 4.66836 2.92145 4.17043 3.43188C3.67251 3.94232 3.28271 4.54798 3.02437 5.21261C2.76603 5.87724 2.64446 6.58717 2.66694 7.29988C2.66694 9.51322 4.44461 12.1355 7.99994 15.1669C11.5533 12.1336 13.3309 9.51122 13.3329 7.29988C13.3554 6.58717 13.2339 5.87724 12.9755 5.21261C12.7172 4.54798 12.3274 3.94232 11.8295 3.43188C11.3315 2.92145 10.7357 2.51674 10.0777 2.24199C9.41969 1.96723 8.713 1.82809 7.99994 1.83288ZM7.99994 8.49988C7.7363 8.49988 7.47858 8.4217 7.25937 8.27523C7.04016 8.12876 6.8693 7.92057 6.76841 7.677C6.66752 7.43343 6.64112 7.1654 6.69255 6.90683C6.74399 6.64825 6.87095 6.41073 7.05737 6.22431C7.24379 6.03789 7.48131 5.91093 7.73989 5.8595C7.99846 5.80806 8.26649 5.83446 8.51006 5.93535C8.75363 6.03624 8.96182 6.2071 9.10829 6.42631C9.25476 6.64552 9.33294 6.90324 9.33294 7.16688C9.33189 7.52009 9.19111 7.85853 8.94135 8.10829C8.69159 8.35805 8.35315 8.49883 7.99994 8.49988Z" fill="white"/>
</g>
</g>
</svg>
