<svg width="24" height="25" viewBox="0 0 24 25" fill="none" xmlns="http://www.w3.org/2000/svg">
<g id="fmd_good_black_24dp (4)">
<g id="Group 838">
<path id="Path 3657" d="M12 2.82803C10.9306 2.82147 9.87088 3.0306 8.88415 3.44291C7.89743 3.85522 7.00396 4.46225 6.25717 5.22771C5.51038 5.99318 4.92559 6.90135 4.53777 7.89796C4.14994 8.89456 3.96704 9.95913 3.99999 11.028C3.99999 14.348 6.66666 18.2814 12 22.828C17.33 18.278 19.9967 14.3447 20 11.028C20.0329 9.95913 19.85 8.89456 19.4622 7.89796C19.0744 6.90135 18.4896 5.99318 17.7428 5.22771C16.996 4.46225 16.1026 3.85522 15.1158 3.44291C14.1291 3.0306 13.0694 2.82147 12 2.82803ZM12 12.828C11.6044 12.828 11.2178 12.7107 10.8889 12.491C10.56 12.2712 10.3036 11.9588 10.1522 11.5934C10.0009 11.2279 9.96125 10.8258 10.0384 10.4378C10.1156 10.0499 10.3061 9.69352 10.5858 9.41382C10.8655 9.13411 11.2219 8.94363 11.6098 8.86646C11.9978 8.78929 12.3999 8.8289 12.7654 8.98027C13.1308 9.13165 13.4432 9.38799 13.6629 9.71689C13.8827 10.0458 14 10.4325 14 10.828C13.9984 11.358 13.7872 11.8658 13.4125 12.2405C13.0377 12.6152 12.5299 12.8264 12 12.828Z" fill="#256EFF"/>
</g>
</g>
</svg>
