<svg width="14" height="14" viewBox="0 0 14 14" fill="none" xmlns="http://www.w3.org/2000/svg">
<path id="Star 1" d="M6.54784 0.457121C6.72824 0.0751911 7.27163 0.0751907 7.45204 0.457121L9.17296 4.10039C9.24584 4.25469 9.39239 4.36116 9.56166 4.3828L13.5584 4.89366C13.9774 4.94721 14.1453 5.464 13.8378 5.7536L10.9047 8.51612C10.7804 8.63312 10.7245 8.8054 10.7562 8.97308L11.5054 12.9321C11.5839 13.3471 11.1443 13.6665 10.7739 13.4635L7.24017 11.5276C7.09051 11.4456 6.90937 11.4456 6.7597 11.5276L3.226 13.4635C2.85555 13.6665 2.41594 13.3471 2.49448 12.9321L3.24369 8.97308C3.27542 8.8054 3.21944 8.63312 3.09522 8.51612L0.162056 5.7536C-0.145432 5.464 0.0224837 4.94721 0.44147 4.89366L4.43821 4.3828C4.60749 4.36116 4.75404 4.25469 4.82692 4.10039L6.54784 0.457121Z" fill="#222222"/>
</svg>
