<svg width="24" height="24" viewBox="0 0 24 24" fill="none" xmlns="http://www.w3.org/2000/svg">
<g id="timelapse_black_24dp">
<path id="Path 3706" d="M16.24 7.76C15.6842 7.20153 15.0235 6.75852 14.2958 6.45646C13.5681 6.1544 12.7879 5.99927 12 6V12L7.76 16.24C8.3093 16.8295 8.9717 17.3023 9.7077 17.6302C10.4437 17.9582 11.2382 18.1345 12.0438 18.1487C12.8494 18.1629 13.6497 18.0147 14.3968 17.713C15.1439 17.4112 15.8226 16.9621 16.3923 16.3923C16.9621 15.8226 17.4112 15.1439 17.713 14.3968C18.0148 13.6497 18.163 12.8494 18.1487 12.0438C18.1345 11.2382 17.9582 10.4437 17.6303 9.7077C17.3023 8.9717 16.8295 8.3093 16.24 7.76ZM12 2C10.0222 2 8.08879 2.58649 6.4443 3.6853C4.79981 4.78412 3.51809 6.3459 2.76121 8.17317C2.00433 10.0004 1.8063 12.0111 2.19215 13.9509C2.578 15.8907 3.53041 17.6725 4.92894 19.0711C6.32746 20.4696 8.10929 21.422 10.0491 21.8079C11.9889 22.1937 13.9996 21.9957 15.8268 21.2388C17.6541 20.4819 19.2159 19.2002 20.3147 17.5557C21.4135 15.9112 22 13.9778 22 12C22 10.6868 21.7413 9.38642 21.2388 8.17317C20.7363 6.95991 19.9997 5.85752 19.0711 4.92893C18.1425 4.00035 17.0401 3.26375 15.8268 2.7612C14.6136 2.25866 13.3132 2 12 2ZM12 20C10.4178 20 8.87104 19.5308 7.55544 18.6518C6.23985 17.7727 5.21447 16.5233 4.60897 15.0615C4.00347 13.5997 3.84504 11.9911 4.15372 10.4393C4.4624 8.88743 5.22433 7.46197 6.34315 6.34315C7.46197 5.22433 8.88743 4.4624 10.4393 4.15372C11.9911 3.84504 13.5997 4.00346 15.0615 4.60896C16.5233 5.21447 17.7727 6.23984 18.6518 7.55544C19.5308 8.87103 20 10.4177 20 12C20 14.1217 19.1572 16.1566 17.6569 17.6569C16.1566 19.1571 14.1217 20 12 20Z" fill="white"/>
</g>
</svg>
