<svg xmlns="http://www.w3.org/2000/svg" width="19.881" height="11.78" viewBox="0 0 19.881 11.78">
  <g id="tripadvisor-logotype" transform="translate(0 -20.082)" opacity="0.794">
    <g id="Group_594" data-name="Group 594" transform="translate(0 20.082)">
      <path id="Path_40977" data-name="Path 40977" d="M12.183,20.266a10.659,10.659,0,0,1,1.635.383,11.189,11.189,0,0,1,2.654,1.21.407.407,0,0,0,.2.059c.977,0,1.954,0,2.93,0,.079,0,.157.008.235.013,0,.019,0,.027,0,.032l-.138.209a5.993,5.993,0,0,0-.782,1.628.188.188,0,0,0,.021.178,4.983,4.983,0,0,1-4.058,7.881,4.626,4.626,0,0,1-1.189-.153,4.988,4.988,0,0,1-2.442-1.441c-.089-.094-.172-.193-.267-.3L9.921,31.556,8.874,29.991a.266.266,0,0,0-.035.018.162.162,0,0,0-.021.022,4.935,4.935,0,0,1-3.085,1.747,4.82,4.82,0,0,1-2.055-.115,4.988,4.988,0,0,1-3.611-4.04,4.811,4.811,0,0,1,.089-1.969,5.006,5.006,0,0,1,.775-1.683.194.194,0,0,0,.022-.145,5.562,5.562,0,0,0-.7-1.5c-.075-.12-.166-.23-.249-.345v-.04a.422.422,0,0,0,.05.005q1.5,0,3,0a.254.254,0,0,0,.129-.042A10.771,10.771,0,0,1,5.42,20.817a12.155,12.155,0,0,1,1.736-.471,13.909,13.909,0,0,1,1.727-.227A14.651,14.651,0,0,1,12.183,20.266Zm-1.253,6.6a3.968,3.968,0,1,0,3.883-3.952A3.973,3.973,0,0,0,10.93,26.868ZM4.978,22.9a3.963,3.963,0,1,0,3.972,3.98A3.968,3.968,0,0,0,4.978,22.9Zm.2-1.036a5.062,5.062,0,0,1,4.768,4.326,5.044,5.044,0,0,1,4.692-4.3,11.285,11.285,0,0,0-4.42-.921A12.241,12.241,0,0,0,5.175,21.866Z" transform="translate(0 -20.082)" fill="#fff"/>
      <path id="Path_40978" data-name="Path 40978" d="M64.072,41.31a2.458,2.458,0,1,1-2.464,2.455A2.449,2.449,0,0,1,64.072,41.31Zm1.6,2.455a1.607,1.607,0,0,0-3.213-.006,1.607,1.607,0,1,0,3.213.006Z" transform="translate(-49.182 -37.028)" fill="#fff"/>
      <path id="Path_40979" data-name="Path 40979" d="M14.656,41.31a2.458,2.458,0,1,1-2.466,2.453A2.448,2.448,0,0,1,14.656,41.31Zm1.6,2.45a1.607,1.607,0,0,0-3.215.005,1.607,1.607,0,1,0,3.215-.005Z" transform="translate(-9.731 -37.028)" fill="#fff"/>
      <path id="Path_40980" data-name="Path 40980" d="M70.6,49.443a.814.814,0,1,1-.816.822A.815.815,0,0,1,70.6,49.443Z" transform="translate(-55.706 -43.521)" fill="#fff"/>
      <path id="Path_40981" data-name="Path 40981" d="M21.142,49.407a.822.822,0,1,1,0,1.644.822.822,0,1,1,0-1.644Z" transform="translate(-16.222 -43.492)" fill="#fff"/>
    </g>
  </g>
</svg>
