<svg xmlns="http://www.w3.org/2000/svg" width="16.78" height="11.749" viewBox="0 0 16.78 11.749">
  <path id="youtube" d="M16.434-4.244a2.1,2.1,0,0,0-1.479-1.479A49.116,49.116,0,0,0,8.39-6.082a51.029,51.029,0,0,0-6.565.346A2.145,2.145,0,0,0,.346-4.244,22.151,22.151,0,0,0,0-.208,22.069,22.069,0,0,0,.346,3.828,2.1,2.1,0,0,0,1.825,5.307a49.2,49.2,0,0,0,6.565.359,51.029,51.029,0,0,0,6.565-.346,2.1,2.1,0,0,0,1.479-1.479A22.158,22.158,0,0,0,16.78-.194,21.027,21.027,0,0,0,16.434-4.244ZM6.718,2.308V-2.723L11.085-.208Zm0,0" transform="translate(0 6.082)" fill="#fff" opacity="0.794"/>
</svg>
